<svg width="67" height="38" viewBox="0 0 67 38" fill="none" xmlns="http://www.w3.org/2000/svg">
<path d="M31.5728 28.4483C35.7391 27.5967 39.1795 26.8918 39.2192 26.8825L39.2915 26.8649L35.3587 21.452C33.195 18.4752 31.4258 16.0273 31.4258 16.0133C31.4258 15.9992 35.487 3.04577 35.5104 3.00003C35.5185 2.98478 38.282 8.50559 42.2102 16.3839L48.9486 29.8968L49 30H36.5H24L31.5728 28.4483Z" fill="#79A61C"/>
<path d="M16 26.9897C16 26.9826 17.8681 23.2407 20.1515 18.6747L24.303 10.3737L29.1462 5.691C31.8072 3.11502 33.9918 1.00354 34 1C33.9826 1.07811 33.9565 1.15403 33.9224 1.22636L28.6639 14.2253L23.4995 26.9932H19.748C17.6881 27.0062 16 26.998 16 26.9897Z" fill="#79A61C"/>
<path d="M14.4583 33.9683C12.2292 33.4172 10.5479 32.508 9.41443 31.2406C8.29357 29.9842 7.73314 28.3201 7.73314 26.2481V22.9583C7.73314 20.2802 6.39818 18.9411 3.72827 18.9411V16.5441C6.39818 16.5441 7.73314 15.2105 7.73314 12.5434V9.10484C7.75832 7.08801 8.31876 5.46247 9.41443 4.22806C10.5227 2.98273 12.204 2.07901 14.4583 1.51691L15.1761 3.41804C12.544 4.15645 11.2279 6.07959 11.2279 9.18754V12.5269C11.2279 15.0286 10.1764 16.77 8.07317 17.7509C10.1764 18.7428 11.2279 20.5006 11.2279 23.0245V26.4299C11.2657 29.4607 12.5818 31.3398 15.1761 32.0672L14.4583 33.9683Z" fill="#EB572A"/>
<path d="M51.8507 32.081C54.4072 31.3647 55.7296 29.5407 55.8178 26.6091V22.9722C55.8178 20.4263 56.9575 18.6905 59.237 17.7648C56.9575 16.8611 55.8178 15.1253 55.8178 12.5573V9.20145C55.8178 6.0935 54.5017 4.17037 51.8696 3.43195L52.5874 1.53082C54.8166 2.08184 56.4916 2.98005 57.6124 4.22547C58.7333 5.45979 59.3 7.09642 59.3126 9.13535V12.6069C59.3126 15.241 60.6475 16.558 63.3175 16.558V18.955C60.6475 18.955 59.3126 20.2941 59.3126 22.9722V26.3115C59.3126 28.3836 58.7396 30.0422 57.5935 31.2875C56.4601 32.5329 54.7914 33.4312 52.5874 33.9822L51.8507 32.081Z" fill="#EB572A"/>
</svg>
